HIERARCHY
ROOT hip
{
  OFFSET 0 0 0
  CHANNELS 6 Xposition Yposition Zposition Zrotation Yrotation Xrotation
  JOINT abdomen
  {
    OFFSET 0 20.6881 -0.73152
    CHANNELS 3 Zrotation Xrotation Yrotation
    JOINT chest
    {
      OFFSET 0 11.7043 -0.48768
      CHANNELS 3 Zrotation Xrotation Yrotation
      JOINT neck
      {
        OFFSET 0 22.1894 -2.19456
        CHANNELS 3 Zrotation Xrotation Yrotation
        JOINT head
        {
          OFFSET -0.24384 7.07133 1.2192
          CHANNELS 3 Zrotation Xrotation Yrotation
          JOINT leftEye
          {
            OFFSET 4.14528 8.04674 8.04672
            CHANNELS 3 Zrotation Xrotation Yrotation
            End Site
            {
              OFFSET 1 0 0
            }
          }
          JOINT rightEye
          {
            OFFSET -3.6576 8.04674 8.04672
            CHANNELS 3 Zrotation Xrotation Yrotation
            End Site
            {
              OFFSET 1 0 0
            }
          }
        }
      }
      JOINT rCollar
      {
        OFFSET -2.68224 19.2634 -4.8768
        CHANNELS 3 Zrotation Xrotation Yrotation
        JOINT rShldr
        {
          OFFSET -8.77824 -1.95073 1.46304
          CHANNELS 3 Zrotation Xrotation Yrotation
          JOINT rForeArm
          {
            OFFSET -28.1742 -1.7115 0.48768
            CHANNELS 3 Zrotation Xrotation Yrotation
            JOINT rHand
            {
              OFFSET -22.5879 0.773209 7.07136
              CHANNELS 3 Zrotation Xrotation Yrotation
              JOINT rThumb1
              {
                OFFSET -1.2192 -0.487915 3.41376
                CHANNELS 3 Zrotation Xrotation Yrotation
                JOINT rThumb2
                {
                  OFFSET -3.37035 -0.52449 3.41376
                  CHANNELS 3 Zrotation Xrotation Yrotation
                  End Site
                  {
                    OFFSET -1.78271 -1.18214 1.43049
                  }
                }
              }
              JOINT rIndex1
              {
                OFFSET -7.75947 0.938293 5.60832
                CHANNELS 3 Zrotation Xrotation Yrotation
                JOINT rIndex2
                {
                  OFFSET -2.54057 -0.884171 1.56538
                  CHANNELS 3 Zrotation Xrotation Yrotation
                  End Site
                  {
                    OFFSET -1.62519 -0.234802 1.16502
                  }
                }
              }
              JOINT rMid1
              {
                OFFSET -8.24714 1.18213 3.41376
                CHANNELS 3 Zrotation Xrotation Yrotation
                JOINT rMid2
                {
                  OFFSET -3.10165 -0.590103 1.0647
                  CHANNELS 3 Zrotation Xrotation Yrotation
                  End Site
                  {
                    OFFSET -2.48547 -0.328903 0.83742
                  }
                }
              }
              JOINT rRing1
              {
                OFFSET -8.82822 0.546677 1.51678
                CHANNELS 3 Zrotation Xrotation Yrotation
                JOINT rRing2
                {
                  OFFSET -2.60934 -0.819778 -0.0198488
                  CHANNELS 3 Zrotation Xrotation Yrotation
                  End Site
                  {
                    OFFSET -2.33842 -0.294052 0.168128
                  }
                }
              }
              JOINT rPinky1
              {
                OFFSET -8.27202 -0.0477905 -0.4584
                CHANNELS 3 Zrotation Xrotation Yrotation
                JOINT rPinky2
                {
                  OFFSET -1.82734 -0.647385 -0.700984
                  CHANNELS 3 Zrotation Xrotation Yrotation
                  End Site
                  {
                    OFFSET -1.69225 -0.51767 -0.607171
                  }
                }
              }
            }
          }
        }
      }
      JOINT lCollar
      {
        OFFSET 2.68224 19.2634 -4.8768
        CHANNELS 3 Zrotation Xrotation Yrotation
        JOINT lShldr
        {
          OFFSET 8.77824 -1.95073 1.46304
          CHANNELS 3 Zrotation Xrotation Yrotation
          JOINT lForeArm
          {
            OFFSET 28.1742 -1.7115 0.48768
            CHANNELS 3 Zrotation Xrotation Yrotation
            JOINT lHand
            {
              OFFSET 22.5879 0.773209 7.07136
              CHANNELS 3 Zrotation Xrotation Yrotation
              JOINT lThumb1
              {
                OFFSET 1.2192 -0.487915 3.41376
                CHANNELS 3 Zrotation Xrotation Yrotation
                JOINT lThumb2
                {
                  OFFSET 3.37035 -0.52449 3.41376
                  CHANNELS 3 Zrotation Xrotation Yrotation
                  End Site
                  {
                    OFFSET 1.78271 -1.18214 1.43049
                  }
                }
              }
              JOINT lIndex1
              {
                OFFSET 7.75947 0.938293 5.60832
                CHANNELS 3 Zrotation Xrotation Yrotation
                JOINT lIndex2
                {
                  OFFSET 2.54057 -0.884171 1.56538
                  CHANNELS 3 Zrotation Xrotation Yrotation
                  End Site
                  {
                    OFFSET 1.62519 -0.234802 1.16502
                  }
                }
              }
              JOINT lMid1
              {
                OFFSET 8.24714 1.18213 3.41376
                CHANNELS 3 Zrotation Xrotation Yrotation
                JOINT lMid2
                {
                  OFFSET 3.10165 -0.590103 1.0647
                  CHANNELS 3 Zrotation Xrotation Yrotation
                  End Site
                  {
                    OFFSET 2.48547 -0.328903 0.83742
                  }
                }
              }
              JOINT lRing1
              {
                OFFSET 8.82822 0.546677 1.51678
                CHANNELS 3 Zrotation Xrotation Yrotation
                JOINT lRing2
                {
                  OFFSET 2.60934 -0.819778 -0.0198488
                  CHANNELS 3 Zrotation Xrotation Yrotation
                  End Site
                  {
                    OFFSET 2.33842 -0.294052 0.168128
                  }
                }
              }
              JOINT lPinky1
              {
                OFFSET 8.27202 -0.0477905 -0.4584
                CHANNELS 3 Zrotation Xrotation Yrotation
                JOINT lPinky2
                {
                  OFFSET 1.82734 -0.647385 -0.700984
                  CHANNELS 3 Zrotation Xrotation Yrotation
                  End Site
                  {
                    OFFSET 1.69225 -0.51767 -0.607171
                  }
                }
              }
            }
          }
        }
      }
    }
  }
  JOINT rButtock
  {
    OFFSET -8.77824 4.35084 1.2192
    CHANNELS 3 Zrotation Xrotation Yrotation
    JOINT rThigh
    {
      OFFSET 0 -1.70687 -2.19456
      CHANNELS 3 Zrotation Xrotation Yrotation
      JOINT rShin
      {
        OFFSET 0 -36.8199 0.73152
        CHANNELS 3 Zrotation Xrotation Yrotation
        JOINT rFoot
        {
          OFFSET 0.73152 -45.1104 -5.12064
          CHANNELS 3 Zrotation Xrotation Yrotation
          End Site
          {
            OFFSET -1.1221 -3.69964 12.103
          }
        }
      }
    }
  }
  JOINT lButtock
  {
    OFFSET 8.77824 4.35084 1.2192
    CHANNELS 3 Zrotation Xrotation Yrotation
    JOINT lThigh
    {
      OFFSET 0 -1.70687 -2.19456
      CHANNELS 3 Zrotation Xrotation Yrotation
      JOINT lShin
      {
        OFFSET 0 -36.8199 0.73152
        CHANNELS 3 Zrotation Xrotation Yrotation
        JOINT lFoot
        {
          OFFSET -0.73152 -45.1104 -5.12064
          CHANNELS 3 Zrotation Xrotation Yrotation
          End Site
          {
            OFFSET 1.1221 -3.69964 12.103
          }
        }
      }
    }
  }
}
MOTION
Frames:	4
Frame Time:	0.03333
-0.4598 56.0882 1.1832 17.498379 -59.556636 -9.82309 -16.689968 6.783674 -104.530881 6.465736 9.021083 80.896772 -15.434408 30.882754 -53.842377 40.67935 -8.509708 -6.847135 -0.000559 -0.0 0.000451 -0.000559 -0.0 0.000451 -159.091283 -41.469382 169.067284 -118.285857 -65.269591 -87.663458 1.302262 63.070812 -65.840009 160.715983 -32.561495 140.483652 2.9619 -2.94374 -0.380231 -130.681733 -26.362871 116.427432 -138.382988 5.06205 114.795818 129.031011 -69.01506 74.680845 -155.08736 9.253481 140.060193 -1.678141 13.450133 2.741922 -0.009013 -0.845325 -0.266013 9.584494 -63.499118 -9.475306 -145.086735 11.800144 -141.747935 -17.302314 -32.95463 -19.152053 149.546684 23.588895 -154.568891 -112.126405 -27.999817 -149.773173 -0.38428 -24.196979 -30.423235 6.658545 36.132364 -3.04862 -1.199125 -1.187667 0.172438 -11.285678 -17.296016 9.671688 85.915678 41.968385 -71.945693 -19.651578 -22.889238 5.337883 160.343263 -5.653711 -143.088425 159.84195 5.185601 -141.627174 145.116876 -0.067036 179.107056 130.323495 -67.614001 152.232698 22.591604 -35.659391 21.710668 -2.239034 -2.49123 1.034327 -179.996891 75.750833 -0.00289 156.377022 -1.308212 -91.850268 -79.107725 -15.774379 19.005199 157.712702 -14.025428 -78.361628 -179.999853 75.749115 -0.000188 -79.728019 85.182358 170.444114 -29.114558 -2.50214 111.015116 -94.614401 -36.73866 -14.858099
-0.4679 56.1208 1.1729 17.863118 -59.450254 -10.195128 -16.491982 7.490919 -88.68218 9.37344 6.77762 64.889196 -16.545015 34.55925 -75.332145 44.837725 6.044847 9.777144 0.003451 -0.0 -0.004805 -0.00211 -0.0 0.000545 3.305552 -27.208026 -5.325334 61.718189 20.264447 -18.995197 -19.347387 31.056515 42.77082 -0.028668 9.188203 1.350348 93.822379 -51.117346 41.064037 -156.117973 -11.067958 119.165975 -123.546242 23.096457 104.20224 173.019187 -47.291556 110.326745 11.975797 -37.146203 -3.221922 -9.657001 30.249265 7.68299 -145.11599 -0.150183 -179.081117 12.037078 33.267366 -5.232969 -92.412426 -49.108646 -90.716513 -123.337548 -33.182264 -122.420916 156.965748 -14.336929 -164.010677 -132.108213 -5.63512 171.549211 8.688566 -7.708169 -28.933058 2.714411 24.322778 -2.360924 159.653632 2.599834 -88.80055 50.656426 -13.653661 -16.847375 -50.193562 -66.534601 -7.768256 178.774099 -44.953896 -107.210891 159.360214 -2.667287 -142.594047 177.879452 -44.492535 -141.942102 0.002102 2.880212 -0.905301 0.723971 54.012495 -12.904765 -8.126189 25.530932 -7.163197 -22.643632 66.92812 -8.76815 -0.001488 -0.000475 -0.00041 -61.935886 -62.148988 -83.590155 -75.374462 50.31455 -15.885122 151.412528 73.838353 -64.605967 0.001325 0.000359 0.000515 4.005814 16.119162 -16.692308 -23.577274 30.187521 -93.408997 -120.461451 25.754657 -156.996911
-0.4689 56.12200000000001 1.1547999999999998 17.598215 -59.625301 -9.944682 -16.5298 8.104747 -74.532686 11.330516 4.218883 50.854767 -14.260754 29.099063 -43.339727 36.803787 -15.174227 -16.003208 0.002015 -0.0 -4.8e-05 -0.003527 -0.0 0.005328 3.981338 -37.471148 -7.22105 -117.820531 -8.909089 -154.819592 -19.997468 6.751778 -58.537993 135.938495 -58.512529 119.729971 -162.998204 -0.681968 89.369487 -68.456616 -2.33831 23.331979 -24.814095 28.781478 17.93828 -92.873117 47.464679 70.162422 0.487549 -1.428094 -0.266143 -155.866596 15.880628 139.837535 -143.992198 -18.456709 -173.084085 -154.502725 7.601657 179.606671 -134.882907 -13.742654 -132.294804 -32.384414 -44.81025 -33.838592 152.246848 13.612743 -157.697137 -106.527768 -52.369855 -155.054011 1.142937 -52.324488 -28.241848 6.479274 35.139569 -2.901303 0.819838 0.807293 -0.131051 -8.626508 -11.692766 6.210918 -26.244419 -45.47234 5.101626 -4.653897 16.321749 -1.041469 165.726604 -22.782424 -144.998098 -178.891372 -50.313251 -140.400541 0.017836 -1.454131 0.456254 -9.844992 7.597486 -0.924763 53.443826 -50.212569 52.13131 124.183862 -32.810598 123.376274 -179.971165 75.748148 -0.022863 156.310368 -1.243049 -87.092079 -86.217458 -1.656126 -108.576449 67.988829 40.243272 -163.821608 0.003828 -0.000997 0.001561 3.195964 13.937244 158.8519 23.580227 -26.177008 135.672093 -114.086475 81.143603 -145.830329
-0.47540000000000004 56.1006 1.1794 16.907438 -59.834406 -9.26539 -16.46798 7.515278 -89.144036 9.315769 6.894336 65.30615 -11.841423 42.559075 -130.114493 36.023391 39.847629 53.342878 0.002933 -0.0 -0.003103 0.002933 -0.0 -0.003103 -143.757682 37.971213 148.227933 160.518157 11.20971 134.461855 -169.048365 -43.379752 116.974398 156.515085 -39.639544 137.396238 -167.41503 -5.090741 89.828125 -173.396518 -11.405395 89.147879 -117.33911 28.382055 99.217831 158.693776 -57.165202 100.476987 -158.628766 -0.506908 142.204846 -165.244452 -10.764152 143.490321 0.004506 0.892479 0.281654 3.216675 44.791221 8.82565 -20.280016 -33.514349 -19.451529 -145.814323 8.843061 -142.773729 13.093219 41.378035 -14.880357 -6.234153 37.728162 -77.082259 -122.698159 89.510044 -174.220422 -156.377884 -36.006957 -139.202977 -47.302644 -39.356339 -10.799308 136.526663 1.843674 -113.836745 136.018557 8.501488 -113.283694 -3.725174 9.371093 7.346826 4.402456 11.853561 -2.740649 1.589549 13.476119 -2.356167 145.024522 7.326861 -178.561098 -11.33791 30.547391 5.484953 -3.089305 8.678574 -2.81859 -7.562848 16.416795 -4.24017 179.999187 75.748865 0.000156 154.117188 -1.252278 89.225434 73.466488 8.72442 -89.612375 171.904738 -29.023141 -7.671981 -0.000292 0.000777 0.00025 3.01093 15.958645 29.922675 7.448839 29.484544 -80.238287 174.604445 31.383926 -86.573575
